<svg xmlns="http://www.w3.org/2000/svg" width="64" height="64" viewBox="0 0 64 64">
  <defs>
    <style>
      .cls-1 {
        fill: #fff;
        fill-rule: evenodd;
      }
    </style>
  </defs>
  <path id="iconSocial-discord" class="cls-1" d="M57.644,45.571A50.446,50.446,0,0,1,44.822,52a11.447,11.447,0,0,1-2.849-4.286,30.248,30.248,0,0,0,4.274-2.143l-1.069-1.428C42.507,45.958,37.164,47.357,32,47.357s-10.507-1.4-13.178-3.214l-1.069,1.428a30.248,30.248,0,0,0,4.274,2.143A11.447,11.447,0,0,1,19.178,52,50.447,50.447,0,0,1,6.356,45.571a48.589,48.589,0,0,1-.356-5c0-11.258,5.432-21.726,8.192-25A36.164,36.164,0,0,1,24.877,12,28.763,28.763,0,0,1,26.3,15.214s3.057-.357,5.7-0.357,5.7,0.357,5.7.357A28.763,28.763,0,0,1,39.123,12a36.164,36.164,0,0,1,10.685,3.571c2.76,3.274,8.192,13.741,8.192,25A48.584,48.584,0,0,1,57.644,45.571ZM23.452,28.786c-3.562,0-4.63,3.623-4.63,5.357,0,2.738,1.543,5.357,4.274,5.357s4.986-1.764,4.986-5.714C28.082,31.316,26.658,28.786,23.452,28.786Zm17.1,0c-3.205,0-4.63,2.53-4.63,5,0,3.95,2.256,5.714,4.986,5.714s4.274-2.619,4.274-5.357C45.178,32.408,44.11,28.786,40.548,28.786Z"/>
</svg>
