<svg xmlns="http://www.w3.org/2000/svg" width="64" height="64" viewBox="0 0 64 64">
  <defs>
    <style>
      .cls-1 {
        fill: #185876;
        fill-rule: evenodd;
      }
    </style>
  </defs>
  <path id="icon_social_twitter" class="cls-1" d="M51.047,20.361A17.372,17.372,0,0,0,56.006,19.3a12.382,12.382,0,0,1-4.615,4.532s-0.511,20.6-20.845,25.437A30.2,30.2,0,0,1,8,45.466l0.127-.324c2.222,0.105,9.394.155,13.781-3.219l0.032-.025s-7.852-1.486-8.538-6.924a15.921,15.921,0,0,0,4.056.13s-7.7-2.453-6.889-9.758A9.557,9.557,0,0,0,14.726,26.9s-6.679-4.079-2.272-12.784c0,0,8.421,10.371,19.386,10.787,0,0-1.256-8.214,6.728-10.439,0,0,6.225-2.143,10.539,2.871a34.034,34.034,0,0,0,6.1-1.618S53.618,19.083,51.047,20.361Z"/>
</svg>
