<svg xmlns="http://www.w3.org/2000/svg" width="64" height="64" viewBox="0 0 64 64">
  <defs>
    <style>
      .cls-1 {
        fill: #fff;
        fill-rule: evenodd;
      }
    </style>
  </defs>
  <path id="iconSocial-telegram" class="cls-1" d="M4,31.731c0-1.541.913-2.025,2.131-2.538S50.459,11.846,50.459,11.846A9.013,9.013,0,0,1,54.3,11c1.035,0,1.7.635,1.7,2.961a26.375,26.375,0,0,1-.426,4.231L48.328,52.039C48.023,53.55,46.867,55,45.344,55a3.619,3.619,0,0,1-2.984-1.269L31.7,45.692l-5.967,5.923a2.989,2.989,0,0,1-2.131.846l0.426-11a2.82,2.82,0,0,1,1.279-2.115c0.792-.574,21.312-18.615,21.312-18.615,1.035-.907,1.763-2.542-1.7-0.423L19.344,35.962a4.323,4.323,0,0,1-2.557.846c-0.974,0-10.656-2.961-10.656-2.961C4.609,33.423,4,32.94,4,31.731Z"/>
</svg>
