<?xml version="1.0" standalone="no"?>
<!DOCTYPE svg PUBLIC "-//W3C//DTD SVG 20010904//EN"
 "http://www.w3.org/TR/2001/REC-SVG-20010904/DTD/svg10.dtd">
<svg version="1.0" xmlns="http://www.w3.org/2000/svg"
 width="64.000000pt" height="64.000000pt" viewBox="0 0 64.000000 64.000000"
 preserveAspectRatio="xMidYMid meet">

<g transform="translate(0.000000,64.000000) scale(0.100000,-0.100000)"
fill="#000000" stroke="none">
<path d="M117 532 c-25 -27 -25 -402 -1 -426 13 -14 47 -16 218 -16 144 0 205
3 214 12 9 9 12 70 12 214 0 171 -2 205 -16 218 -13 14 -47 16 -213 16 -179 0
-199 -2 -214 -18z m390 -74 c2 -32 -17 -51 -49 -46 -19 2 -24 10 -26 41 l-3
38 38 -3 c33 -3 38 -6 40 -30z m-109 -84 c68 -78 -38 -189 -121 -124 -31 25
-42 65 -26 102 25 60 103 72 147 22z m-208 -50 c0 -45 33 -106 70 -127 38 -23
107 -22 147 3 40 24 63 67 63 120 0 32 3 41 16 38 13 -2 16 -20 16 -101 1 -54
-1 -100 -4 -103 -3 -2 -79 -5 -169 -5 l-164 -1 -3 106 c-2 90 0 106 13 106 11
0 15 -10 15 -36z"/>
</g>
</svg>
